<svg width="139" height="33" viewBox="0 0 139 33" fill="none" xmlns="http://www.w3.org/2000/svg">
<g clip-path="url(#clip0)">
<path d="M4.425 1.9716C7.54842 3.15827 9.5923 4.33136 10.5566 5.49088C11.5209 6.6504 12.2385 8.79776 12.7093 11.9329C9.5859 10.7463 7.54202 9.57317 6.57771 8.41365C5.6134 7.25413 4.89583 5.10678 4.425 1.9716Z" fill="#0A689F"/>
<path d="M0.174913 12.3376C3.38244 11.4158 5.74814 11.1222 7.27201 11.4569C8.79588 11.7915 10.794 13.0434 13.2663 15.2125C10.0588 16.1343 7.69312 16.4279 6.16925 16.0932C4.64538 15.7586 2.64727 14.5067 0.174913 12.3376Z" fill="#0A689F"/>
<path d="M16.3188 0.468236C14.5529 3.1614 13.6639 5.23995 13.6519 6.70389C13.6399 8.16783 14.4944 10.2815 16.2155 13.0448C17.9814 10.3517 18.8704 8.2731 18.8824 6.80916C18.8944 5.34522 18.0399 3.23158 16.3188 0.468236Z" fill="#0A689F"/>
<path d="M17.5986 30.0391V15.7793H14.9873V13.4004H22.7119C24.3252 13.4004 25.6058 13.528 26.5537 13.7832C27.5016 14.0293 28.2855 14.5579 28.9053 15.3691C29.5251 16.1712 29.835 17.1738 29.835 18.377C29.835 20.8926 28.527 22.474 25.9111 23.1211L29.2744 30.0391H31.5986V32.418H27.4834L23.1494 23.5312H20.4697V30.0391H22.9033V32.418H14.9873V30.0391H17.5986ZM20.4697 21.1523H22.7119C23.7965 21.1523 24.5941 21.084 25.1045 20.9473C25.624 20.8014 26.0479 20.5143 26.376 20.0859C26.7041 19.6484 26.8682 19.0651 26.8682 18.3359C26.8682 17.7161 26.6995 17.1921 26.3623 16.7637C26.0342 16.3353 25.624 16.0664 25.1318 15.957C24.6488 15.8385 23.9059 15.7793 22.9033 15.7793H20.4697V21.1523ZM46.5693 26.457H35.4404C35.6045 27.6784 36.0876 28.6673 36.8896 29.4238C37.6917 30.1803 38.7171 30.5586 39.9658 30.5586C41.7796 30.5586 43.2152 29.8294 44.2725 28.3711L46.5693 29.3828C45.8219 30.5404 44.8512 31.4017 43.6572 31.9668C42.4632 32.5228 41.2145 32.8008 39.9111 32.8008C37.8877 32.8008 36.1559 32.1719 34.7158 30.9141C33.2848 29.6471 32.5693 27.9427 32.5693 25.8008C32.5693 23.7682 33.2666 22.0957 34.6611 20.7832C36.0648 19.4707 37.6735 18.8145 39.4873 18.8145C41.2646 18.8145 42.8734 19.457 44.3135 20.7422C45.7627 22.0182 46.5146 23.9232 46.5693 26.457ZM43.8896 24.5703C43.7074 23.6406 43.2243 22.8021 42.4404 22.0547C41.6566 21.2982 40.695 20.9199 39.5557 20.9199C38.5166 20.9199 37.6279 21.2617 36.8896 21.9453C36.1514 22.6198 35.7002 23.4948 35.5361 24.5703H43.8896ZM62.1143 30.1074V32.418H57.5752V30.8047C56.3174 32.026 54.9137 32.6367 53.3643 32.6367C52.1611 32.6367 51.113 32.2448 50.2197 31.4609C49.3356 30.6771 48.8936 29.6745 48.8936 28.4531C48.8936 27.2227 49.363 26.2018 50.3018 25.3906C51.2497 24.5794 52.389 24.1738 53.7197 24.1738C54.9593 24.1738 56.1579 24.5475 57.3154 25.2949V23.9824C57.3154 23.3079 57.2516 22.7884 57.124 22.4238C56.9964 22.0592 56.6956 21.7311 56.2217 21.4395C55.7568 21.1478 55.1462 21.002 54.3896 21.002C53.0863 21.002 52.1429 21.5215 51.5596 22.5605L49.0713 21.9043C50.1742 19.8444 52.0791 18.8145 54.7861 18.8145C55.7796 18.8145 56.6364 18.9512 57.3564 19.2246C58.0856 19.4889 58.6279 19.8353 58.9834 20.2637C59.3389 20.6829 59.5758 21.1387 59.6943 21.6309C59.8219 22.123 59.8857 22.9069 59.8857 23.9824V30.1074H62.1143ZM57.3154 27.4961C56.1943 26.6211 55.0596 26.1836 53.9111 26.1836C53.1911 26.1836 52.5895 26.3932 52.1064 26.8125C51.6234 27.2318 51.3818 27.7741 51.3818 28.4395C51.3818 29.0592 51.5915 29.5788 52.0107 29.998C52.4391 30.4173 53.0179 30.627 53.7471 30.627C55.0049 30.627 56.1943 30.0983 57.3154 29.041V27.4961ZM76.0186 19.1836V24.1875H73.6943C73.5758 23.2305 73.1839 22.4967 72.5186 21.9863C71.8623 21.4759 71.0967 21.2207 70.2217 21.2207C69.055 21.2207 68.1071 21.6354 67.3779 22.4648C66.6488 23.2852 66.2842 24.3652 66.2842 25.7051C66.2842 26.9538 66.6305 28.0566 67.3232 29.0137C68.016 29.9616 69.0186 30.4355 70.3311 30.4355C72.154 30.4355 73.4756 29.5697 74.2959 27.8379L76.4424 28.8496C75.2575 31.4837 73.1839 32.8008 70.2217 32.8008C68.1253 32.8008 66.4756 32.0853 65.2725 30.6543C64.0693 29.2233 63.4678 27.5736 63.4678 25.7051C63.4678 23.709 64.124 22.0638 65.4365 20.7695C66.749 19.4661 68.262 18.8145 69.9756 18.8145C71.443 18.8145 72.6826 19.2474 73.6943 20.1133V19.1836H76.0186Z" fill="white"/>
<path d="M83.6885 30.0391V15.7793H79.7646V20.6328H77.4131V13.4004H92.8213V20.6328H90.4697V15.7793H86.5596V30.0391H89.0342V32.418H81.2549V30.0391H83.6885ZM96.417 30.1074V21.4941H93.751V19.1836H98.4951V22.1641C98.7868 21.3893 99.1924 20.7467 99.7119 20.2363C100.231 19.7259 100.778 19.3887 101.353 19.2246C101.936 19.0605 102.729 18.9785 103.731 18.9785H104.415V21.6035H103.896C102.574 21.6035 101.585 21.7357 100.929 22C100.282 22.2643 99.7985 22.7474 99.4795 23.4492C99.1696 24.1419 99.0146 25.3906 99.0146 27.1953V30.1074H101.899V32.418H93.751V30.1074H96.417ZM118.429 26.457H107.3C107.464 27.6784 107.947 28.6673 108.749 29.4238C109.551 30.1803 110.576 30.5586 111.825 30.5586C113.639 30.5586 115.075 29.8294 116.132 28.3711L118.429 29.3828C117.681 30.5404 116.711 31.4017 115.517 31.9668C114.323 32.5228 113.074 32.8008 111.771 32.8008C109.747 32.8008 108.015 32.1719 106.575 30.9141C105.144 29.6471 104.429 27.9427 104.429 25.8008C104.429 23.7682 105.126 22.0957 106.521 20.7832C107.924 19.4707 109.533 18.8145 111.347 18.8145C113.124 18.8145 114.733 19.457 116.173 20.7422C117.622 22.0182 118.374 23.9232 118.429 26.457ZM115.749 24.5703C115.567 23.6406 115.084 22.8021 114.3 22.0547C113.516 21.2982 112.554 20.9199 111.415 20.9199C110.376 20.9199 109.487 21.2617 108.749 21.9453C108.011 22.6198 107.56 23.4948 107.396 24.5703H115.749ZM134.479 26.457H123.351C123.515 27.6784 123.998 28.6673 124.8 29.4238C125.602 30.1803 126.627 30.5586 127.876 30.5586C129.69 30.5586 131.125 29.8294 132.183 28.3711L134.479 29.3828C133.732 30.5404 132.761 31.4017 131.567 31.9668C130.373 32.5228 129.125 32.8008 127.821 32.8008C125.798 32.8008 124.066 32.1719 122.626 30.9141C121.195 29.6471 120.479 27.9427 120.479 25.8008C120.479 23.7682 121.177 22.0957 122.571 20.7832C123.975 19.4707 125.584 18.8145 127.397 18.8145C129.175 18.8145 130.784 19.457 132.224 20.7422C133.673 22.0182 134.425 23.9232 134.479 26.457ZM131.8 24.5703C131.618 23.6406 131.134 22.8021 130.351 22.0547C129.567 21.2982 128.605 20.9199 127.466 20.9199C126.427 20.9199 125.538 21.2617 124.8 21.9453C124.062 22.6198 123.61 23.4948 123.446 24.5703H131.8Z" fill="#0A689F"/>
</g>
<defs>
<clipPath id="clip0">
<rect width="139" height="33" fill="white"/>
</clipPath>
</defs>
</svg>
